<?xml version="1.0" encoding="utf-8"?>
<!-- Generator: Adobe Illustrator 15.0.0, SVG Export Plug-In . SVG Version: 6.00 Build 0)  -->
<!DOCTYPE svg PUBLIC "-//W3C//DTD SVG 1.1//EN" "http://www.w3.org/Graphics/SVG/1.1/DTD/svg11.dtd">
<svg version="1.1" id="Capa_1" xmlns="http://www.w3.org/2000/svg" xmlns:xlink="http://www.w3.org/1999/xlink" x="0px" y="0px"
	 width="24px" height="21.854px" viewBox="52 53.073 24 21.854" enable-background="new 52 53.073 24 21.854" xml:space="preserve">
<path fill="#FFFFFF" d="M73.678,53.073H54.323c-1.278,0-2.323,1.054-2.323,2.341c0,1.288,1.045,2.341,2.323,2.341h19.355
	c1.277,0,2.322-1.053,2.322-2.341C76,54.127,74.955,53.073,73.678,53.073z"/>
<path fill="#FFFFFF" d="M73.678,61.659H54.323C53.045,61.659,52,62.712,52,64s1.045,2.342,2.323,2.342h19.355
	C74.955,66.342,76,65.288,76,64S74.955,61.659,73.678,61.659z"/>
<path fill="#FFFFFF" d="M73.678,70.244H54.323c-1.278,0-2.323,1.054-2.323,2.342c0,1.287,1.045,2.341,2.323,2.341h19.355
	c1.277,0,2.322-1.054,2.322-2.341C76,71.298,74.955,70.244,73.678,70.244z"/>
</svg>
