<?xml version="1.0" encoding="utf-8"?>
<!-- Generator: Adobe Illustrator 15.0.0, SVG Export Plug-In . SVG Version: 6.00 Build 0)  -->
<!DOCTYPE svg PUBLIC "-//W3C//DTD SVG 1.1//EN" "http://www.w3.org/Graphics/SVG/1.1/DTD/svg11.dtd">
<svg version="1.1" id="Capa_1" xmlns="http://www.w3.org/2000/svg" xmlns:xlink="http://www.w3.org/1999/xlink" x="0px" y="0px"
	 width="6.75px" height="12px" viewBox="5.125 2 6.75 12" enable-background="new 5.125 2 6.75 12" xml:space="preserve">
<path fill="#259B24" d="M10.375,8.021V4.137c0.947-0.321,1.5-0.838,1.5-1.205c0-1.243-6.75-1.243-6.75,0
	c0,0.404,0.553,0.91,1.5,1.219v3.87c-0.947,0.241-1.5,0.688-1.5,1.297c0,0.574,1.448,0.879,3.001,0.924L8.125,10.25v2.25
	c0,0.415,0.167,1.5,0.375,1.5c0.205,0,0.375-1.085,0.375-1.5v-2.25l-0.001-0.008c1.554-0.045,3.001-0.35,3.001-0.924
	C11.875,8.709,11.322,8.261,10.375,8.021z"/>
</svg>
