<?xml version="1.0" encoding="utf-8"?>
<!-- Generator: Adobe Illustrator 15.0.0, SVG Export Plug-In . SVG Version: 6.00 Build 0)  -->
<!DOCTYPE svg PUBLIC "-//W3C//DTD SVG 1.1//EN" "http://www.w3.org/Graphics/SVG/1.1/DTD/svg11.dtd">
<svg version="1.1" id="Layer_1" xmlns="http://www.w3.org/2000/svg" xmlns:xlink="http://www.w3.org/1999/xlink" x="0px" y="0px"
	 width="24px" height="24.001px" viewBox="38 37.999 24 24.001" enable-background="new 38 37.999 24 24.001" xml:space="preserve">
<path fill="#FFFFFF" d="M62,50c0,1.16-0.939,2.1-2.101,2.1h-7.799v7.8C52.101,61.06,51.16,62,50,62c-0.58,0-1.105-0.235-1.485-0.615
	c-0.38-0.38-0.615-0.904-0.615-1.484V52.1h-7.8c-0.58,0-1.104-0.234-1.485-0.615C38.235,51.104,38,50.579,38,50
	c0-1.16,0.94-2.101,2.101-2.101H47.9v-7.8c0-1.16,0.941-2.101,2.101-2.101c1.159,0,2.1,0.94,2.1,2.1v7.801h7.801
	C61.061,47.9,62,48.84,62,50z"/>
</svg>
